<?xml version="1.0" encoding="UTF-8" standalone="no"?>
<svg
   xmlns:dc="http://purl.org/dc/elements/1.1/"
   xmlns:cc="http://creativecommons.org/ns#"
   xmlns:rdf="http://www.w3.org/1999/02/22-rdf-syntax-ns#"
   xmlns:svg="http://www.w3.org/2000/svg"
   xmlns="http://www.w3.org/2000/svg"
   xmlns:sodipodi="http://sodipodi.sourceforge.net/DTD/sodipodi-0.dtd"
   xmlns:inkscape="http://www.inkscape.org/namespaces/inkscape"
   id="svg2"
   version="1.1"
   inkscape:version="0.91 r13725"
   sodipodi:docname="erase.svg"
   width="1919.9512"
   height="1919.9512">
  <metadata
     id="metadata10">
    <rdf:RDF>
      <cc:Work
         rdf:about="">
        <dc:format>image/svg+xml</dc:format>
        <dc:type
           rdf:resource="http://purl.org/dc/dcmitype/StillImage" />
        <dc:title />
      </cc:Work>
    </rdf:RDF>
  </metadata>
  <defs
     id="defs8" />
  <sodipodi:namedview
     pagecolor="#ffffff"
     bordercolor="#666666"
     borderopacity="1"
     objecttolerance="10"
     gridtolerance="10"
     guidetolerance="10"
     inkscape:pageopacity="0"
     inkscape:pageshadow="2"
     inkscape:window-width="1513"
     inkscape:window-height="810"
     id="namedview6"
     showgrid="false"
     fit-margin-top="0"
     fit-margin-left="0"
     fit-margin-right="0"
     fit-margin-bottom="0"
     inkscape:zoom="0.2085965"
     inkscape:cx="-216.2873"
     inkscape:cy="1038.2422"
     inkscape:window-x="0"
     inkscape:window-y="0"
     inkscape:window-maximized="0"
     inkscape:current-layer="svg2" />
  <path
     d="m 912.51473,1339.6631 249.16977,-284.7656 -569.53104,0 -249.16988,284.7656 569.53115,0 z M 1663.7321,540.98453 q 11.1237,25.21362 7.0449,53.02275 -4.0785,27.80914 -22.618,48.57331 L 983.70613,1401.9554 q -28.1799,32.6295 -71.1914,32.6295 l -569.53115,0 q -28.17993,0 -51.5396,-15.2024 -23.35968,-15.2022 -35.22491,-40.4158 -11.12366,-25.2137 -7.04498,-53.0229 4.07869,-27.8091 22.6181,-48.5732 L 936.24523,517.99564 q 28.1799,-32.62939 71.19137,-32.62939 l 569.531,0 q 28.1799,0 51.5395,15.20233 23.3598,15.20234 35.225,40.41595 z"
     id="path4"
     inkscape:connector-curvature="0"
     style="fill:#505050;fill-opacity:1" />
</svg>
