<?xml version="1.0" encoding="UTF-8" standalone="no"?>
<!-- Generator: Adobe Illustrator 16.0.0, SVG Export Plug-In . SVG Version: 6.00 Build 0)  -->

<svg
   xmlns:dc="http://purl.org/dc/elements/1.1/"
   xmlns:cc="http://creativecommons.org/ns#"
   xmlns:rdf="http://www.w3.org/1999/02/22-rdf-syntax-ns#"
   xmlns:svg="http://www.w3.org/2000/svg"
   xmlns="http://www.w3.org/2000/svg"
   xmlns:sodipodi="http://sodipodi.sourceforge.net/DTD/sodipodi-0.dtd"
   xmlns:inkscape="http://www.inkscape.org/namespaces/inkscape"
   version="1.1"
   id="Capa_1"
   x="0px"
   y="0px"
   width="438.536px"
   height="438.536px"
   viewBox="0 0 438.536 438.536"
   style="enable-background:new 0 0 438.536 438.536;"
   xml:space="preserve"
   inkscape:version="0.91 r13725"
   sodipodi:docname="fill.svg"><metadata
     id="metadata41"><rdf:RDF><cc:Work
         rdf:about=""><dc:format>image/svg+xml</dc:format><dc:type
           rdf:resource="http://purl.org/dc/dcmitype/StillImage" /><dc:title /></cc:Work></rdf:RDF></metadata><defs
     id="defs39" /><sodipodi:namedview
     pagecolor="#ffffff"
     bordercolor="#666666"
     borderopacity="1"
     objecttolerance="10"
     gridtolerance="10"
     guidetolerance="10"
     inkscape:pageopacity="0"
     inkscape:pageshadow="2"
     inkscape:window-width="1496"
     inkscape:window-height="880"
     id="namedview37"
     showgrid="false"
     inkscape:zoom="1.0375456"
     inkscape:cx="-15.724091"
     inkscape:cy="214.68798"
     inkscape:window-x="24"
     inkscape:window-y="43"
     inkscape:window-maximized="0"
     inkscape:current-layer="Capa_1"><inkscape:grid
       type="xygrid"
       id="grid4267" /></sodipodi:namedview><path
     style="fill:#505050;fill-opacity:1;fill-rule:evenodd;stroke:#ffffff;stroke-width:0.92054689px;stroke-linecap:butt;stroke-linejoin:miter;stroke-opacity:1"
     d="m 241.77224,70.15226 132.5678,132.99578 c 0,0 1.32129,24.76456 -1.38711,39.87454 -2.72539,15.20481 -12.12048,34.19809 -24.09016,48.43407 -12.18048,14.48667 -27.54951,26.72738 -27.54951,26.72738 -10.06816,7.41604 -18.37167,11.83388 -30.21884,16.39674 -18.1214,6.21595 -31.77678,7.46237 -50.28808,9.15159 l -96.53659,-91.40426 1.71021,-40.19932 c 17.81053,-12.43481 32.82926,-20.77036 48.18372,-32.24709 13.20745,-11.28894 27.6103,-25.59936 37.42342,-41.40376 4.81277,-7.75117 8.5863,-14.95664 10.05997,-25.4553 0.88389,-6.2969 0.23331,-10.64754 -3.29694,-13.789966 -3.7477,-3.33601 -9.85137,-2.52617 -14.94535,-1.78127 -13.82436,2.02157 -30.2861,10.391706 -41.12802,20.147036 -7.87007,6.49858 -13.18451,12.16901 -17.94962,18.32686 l -10.64867,14.62394 -26.51424,1.28224 c -1.15144,1.15144 1.72103,-6.20252 11.11892,-19.67168 8.03753,-11.5195 10.59992,-14.58529 24.20014,-26.19454 5.70921,-4.87343 10.15613,-8.083346 26.16407,-16.995566 11.74156,-6.536978 26.33905,-12.157975 39.59035,-15.45282 l 13.53453,-3.364604 z m -69.89885,98.20451 c 15.39976,-0.32694 -10.99609,5.6508 -17.38295,8.60182 -9.56585,4.41987 -14.77847,8.20812 -17.46922,10.31541 -6.41174,5.02142 -9.97334,10.68301 -11.42173,17.86675 -1.10705,5.49072 -1.35582,8.25187 -1.85738,13.83058 -2.51677,27.99343 -2.49628,55.58474 -2.06376,83.5146 0.0972,6.27779 0.22482,13.05823 1.86584,19.11853 1.50882,5.57204 3.12205,11.29611 7.89642,14.54104 7.21376,4.9029 16.77004,5.71516 25.50773,5.43345 20.19098,-0.65096 34.25944,-11.16208 39.06765,8.17384 0.91259,3.66992 -3.39336,7.1318 -3.39336,7.1318 -4.25693,3.75226 -10.83008,2.7435 -17.90734,3.56254 -9.44463,1.093 -17.30496,2.44382 -25.53988,4.048 -9.96189,1.9406 -16.73912,2.63601 -24.57735,3.29525 -8.52272,0.71682 -17.1625,0.98606 -25.658283,0 -4.94575,-0.57402 -9.74941,-2.06159 -14.53936,-3.42042 -3.469286,-0.98418 -7.328127,-2.30866 -10.264665,-3.42212 -4.164012,-1.57891 -10.061174,-4.10403 -10.262976,-8.55277 -0.09136,-2.01384 2.319154,-3.79349 4.276381,-4.27637 3.079115,-0.75968 8.828918,-1.38653 11.974879,-4.27639 3.475401,-3.19248 5.303119,-10.22789 6.137149,-15.09758 6.658272,-38.87593 -0.693513,-91.31259 -0.150554,-112.08921 0.373056,-14.27555 3.021326,-25.15502 15.395319,-35.06532 4.62571,-3.70471 13.60713,-10.05955 66.71187,-13.08119 1.41648,-0.0806 2.62892,-0.13044 3.65557,-0.15224 z"
     id="path4261"
     inkscape:connector-curvature="0" /></svg>