<?xml version="1.0" encoding="UTF-8" standalone="no"?>
<svg
   xmlns:dc="http://purl.org/dc/elements/1.1/"
   xmlns:cc="http://creativecommons.org/ns#"
   xmlns:rdf="http://www.w3.org/1999/02/22-rdf-syntax-ns#"
   xmlns:svg="http://www.w3.org/2000/svg"
   xmlns="http://www.w3.org/2000/svg"
   xmlns:sodipodi="http://sodipodi.sourceforge.net/DTD/sodipodi-0.dtd"
   xmlns:inkscape="http://www.inkscape.org/namespaces/inkscape"
   id="svg2"
   version="1.1"
   inkscape:version="0.91 r13725"
   sodipodi:docname="floppy.svg"
   width="1536"
   height="1536">
  <metadata
     id="metadata10">
    <rdf:RDF>
      <cc:Work
         rdf:about="">
        <dc:format>image/svg+xml</dc:format>
        <dc:type
           rdf:resource="http://purl.org/dc/dcmitype/StillImage" />
        <dc:title />
      </cc:Work>
    </rdf:RDF>
  </metadata>
  <defs
     id="defs8" />
  <sodipodi:namedview
     pagecolor="#ffffff"
     bordercolor="#666666"
     borderopacity="1"
     objecttolerance="10"
     gridtolerance="10"
     guidetolerance="10"
     inkscape:pageopacity="0"
     inkscape:pageshadow="2"
     inkscape:window-width="1143"
     inkscape:window-height="915"
     id="namedview6"
     showgrid="false"
     fit-margin-top="0"
     fit-margin-left="0"
     fit-margin-right="0"
     fit-margin-bottom="0"
     inkscape:zoom="0.25585664"
     inkscape:cx="77.631952"
     inkscape:cy="576.31225"
     inkscape:window-x="0"
     inkscape:window-y="0"
     inkscape:window-maximized="0"
     inkscape:current-layer="svg2" />
  <path
     d="m 535.45196,1155.58 465.09604,0 0,-232.54809 -465.09602,0 0,232.54809 z m 542.61194,0 77.5161,0 0,-542.61209 q 0,-8.47831 -6.0559,-23.31534 -6.056,-14.83704 -12.112,-20.89299 L 967.24032,398.58773 q -6.0559,-6.05595 -20.59019,-12.11187 -14.53427,-6.05594 -23.61817,-6.05594 l 0,251.927 q 0,24.22375 -16.95663,41.18037 -16.95662,16.95662 -41.18034,16.95662 l -348.82199,0 q -24.22378,0 -41.1804,-16.95662 -16.95662,-16.95662 -16.95662,-41.18037 l 0,-251.927 -77.51602,0 0,775.16008 77.51602,0 0,-251.92709 q 0,-24.22375 16.95662,-41.18038 16.9566,-16.95663 41.18039,-16.95663 l 503.85391,0 q 24.2237,0 41.1805,16.95663 16.9565,16.95663 16.9565,41.18038 l 0,251.92709 z m -232.54794,-561.99108 0,-193.79 q 0,-7.87271 -5.75313,-13.62586 -5.75315,-5.75314 -13.62585,-5.75314 l -116.27401,0 q -7.87272,0 -13.62584,5.75314 -5.75317,5.75315 -5.75317,13.62586 l 0,193.79 q 0,7.87272 5.75317,13.62586 5.75312,5.75313 13.62584,5.75313 l 116.27401,0 q 7.8727,0 13.62585,-5.75313 5.75313,-5.75314 5.75313,-13.62586 z m 387.58004,19.37899 0,561.99099 q 0,24.2237 -16.9567,41.1804 -16.9567,16.9568 -41.1804,16.9568 l -813.91792,0 q -24.22377,0 -41.18038,-16.9568 -16.95663,-16.9567 -16.95663,-41.1804 l 0,-813.91797 q 0,-24.22377 16.95663,-41.18038 16.95661,-16.95663 41.18038,-16.95663 l 561.99098,0 q 24.22374,0 53.29226,12.11189 29.06848,12.11187 46.02518,29.06849 l 169.5662,169.56624 q 16.9567,16.95662 29.0685,46.02513 12.1119,29.0685 12.1119,53.29224 z"
     id="path4"
     inkscape:connector-curvature="0"
     style="fill:#505050;fill-opacity:1" />
</svg>
