<?xml version="1.0" encoding="UTF-8" standalone="no"?>
<svg
   xmlns:dc="http://purl.org/dc/elements/1.1/"
   xmlns:cc="http://creativecommons.org/ns#"
   xmlns:rdf="http://www.w3.org/1999/02/22-rdf-syntax-ns#"
   xmlns:svg="http://www.w3.org/2000/svg"
   xmlns="http://www.w3.org/2000/svg"
   xmlns:sodipodi="http://sodipodi.sourceforge.net/DTD/sodipodi-0.dtd"
   xmlns:inkscape="http://www.inkscape.org/namespaces/inkscape"
   id="svg2"
   version="1.1"
   inkscape:version="0.91 r13725"
   sodipodi:docname="fullscreen.svg"
   width="1536"
   height="1536">
  <metadata
     id="metadata10">
    <rdf:RDF>
      <cc:Work
         rdf:about="">
        <dc:format>image/svg+xml</dc:format>
        <dc:type
           rdf:resource="http://purl.org/dc/dcmitype/StillImage" />
        <dc:title />
      </cc:Work>
    </rdf:RDF>
  </metadata>
  <defs
     id="defs8" />
  <sodipodi:namedview
     pagecolor="#ffffff"
     bordercolor="#666666"
     borderopacity="1"
     objecttolerance="10"
     gridtolerance="10"
     guidetolerance="10"
     inkscape:pageopacity="0"
     inkscape:pageshadow="2"
     inkscape:window-width="1672"
     inkscape:window-height="1132"
     id="namedview6"
     showgrid="false"
     fit-margin-top="0"
     fit-margin-left="0"
     fit-margin-right="0"
     fit-margin-bottom="0"
     inkscape:zoom="0.35907429"
     inkscape:cx="-288.37009"
     inkscape:cy="578.21708"
     inkscape:window-x="0"
     inkscape:window-y="0"
     inkscape:window-maximized="0"
     inkscape:current-layer="svg2" />
  <path
     d="M 1048.6282,961.44275 855.18548,768.00003 1048.6282,574.55732 l 78.4669,78.4669 q 15.8024,16.89219 38.1436,7.62874 21.2514,-9.26347 21.2514,-32.14963 l 0,-244.11926 q 0,-14.16764 -10.3532,-24.52092 -10.3532,-10.35327 -24.5209,-10.35327 l -244.11924,0 q -22.88619,0 -32.14964,21.79636 -9.26345,21.25145 7.62873,37.59872 l 78.4669,78.46691 -193.44271,193.44271 -193.44271,-193.44271 78.4669,-78.46691 q 16.89218,-16.34727 7.62872,-37.59872 -9.26345,-21.79636 -32.14962,-21.79636 l -244.11927,0 q -14.16763,0 -24.52091,10.35327 -10.35327,10.35327 -10.35327,24.52091 l 0,244.11926 q 0,22.88617 21.79636,32.14963 21.25146,9.26345 37.59873,-7.62873 l 78.4669,-78.4669 193.44271,193.44271 -193.44271,193.44272 -78.4669,-78.46691 q -10.35327,-10.35327 -24.52091,-10.35327 -6.5389,0 -13.07782,2.72455 -21.79636,9.26346 -21.79636,32.14963 l 0,244.11925 q 0,14.1677 10.35327,24.5209 10.35328,10.3532 24.52091,10.3532 l 244.11926,0 q 22.88617,0 32.14963,-21.7963 9.26345,-21.2514 -7.62873,-37.5987 l -78.4669,-78.4669 193.44271,-193.44272 193.44272,193.44272 -78.46691,78.4669 q -16.89217,16.3473 -7.62873,37.5987 9.26346,21.7963 32.14964,21.7963 l 244.11925,0 q 14.1677,0 24.5209,-10.3532 10.3532,-10.3532 10.3532,-24.5209 l 0,-244.11924 q 0,-22.88619 -21.2514,-32.14964 -7.0838,-2.72455 -13.6227,-2.72455 -14.1677,0 -24.5209,10.35327 z"
     id="path4"
     inkscape:connector-curvature="0"
     style="fill:#505050;fill-opacity:1" />
</svg>
