<?xml version="1.0" encoding="UTF-8" standalone="no"?>
<svg
   xmlns:dc="http://purl.org/dc/elements/1.1/"
   xmlns:cc="http://creativecommons.org/ns#"
   xmlns:rdf="http://www.w3.org/1999/02/22-rdf-syntax-ns#"
   xmlns:svg="http://www.w3.org/2000/svg"
   xmlns="http://www.w3.org/2000/svg"
   xmlns:sodipodi="http://sodipodi.sourceforge.net/DTD/sodipodi-0.dtd"
   xmlns:inkscape="http://www.inkscape.org/namespaces/inkscape"
   id="svg2"
   version="1.1"
   inkscape:version="0.91 r13725"
   sodipodi:docname="link.svg"
   width="1536"
   height="1536">
  <metadata
     id="metadata10">
    <rdf:RDF>
      <cc:Work
         rdf:about="">
        <dc:format>image/svg+xml</dc:format>
        <dc:type
           rdf:resource="http://purl.org/dc/dcmitype/StillImage" />
        <dc:title />
      </cc:Work>
    </rdf:RDF>
  </metadata>
  <defs
     id="defs8" />
  <sodipodi:namedview
     pagecolor="#ffffff"
     bordercolor="#666666"
     borderopacity="1"
     objecttolerance="10"
     gridtolerance="10"
     guidetolerance="10"
     inkscape:pageopacity="0"
     inkscape:pageshadow="2"
     inkscape:window-width="1672"
     inkscape:window-height="1132"
     id="namedview6"
     showgrid="false"
     fit-margin-top="0"
     fit-margin-left="0"
     fit-margin-right="0"
     fit-margin-bottom="0"
     inkscape:zoom="0.33312556"
     inkscape:cx="442.55694"
     inkscape:cy="912.40976"
     inkscape:window-x="58"
     inkscape:window-y="0"
     inkscape:window-maximized="0"
     inkscape:current-layer="svg2" />
  <path
     inkscape:connector-curvature="0"
     unicode="ïƒ"
     horiz-adv-x="1664"
     d="m 1148.672,533.74033 q 0,24.40204 -17.0816,41.48345 l -126.8906,126.89063 q -17.08146,17.08144 -41.48355,17.08144 -25.62212,0 -43.92362,-19.52164 1.83017,-1.83015 11.59099,-11.28594 9.76076,-9.45579 13.11604,-13.11609 3.3553,-3.66031 9.15081,-11.59097 5.79545,-7.93067 7.93067,-15.55631 2.13511,-7.62564 2.13511,-16.77641 0,-24.40204 -17.0814,-41.48347 -17.08137,-17.08143 -41.48347,-17.08143 -9.15075,0 -16.77639,2.13517 -7.62565,2.13519 -15.5563,7.93067 -7.93066,5.7955 -11.59097,9.15076 -3.66032,3.35529 -13.1161,13.1161 -9.45579,9.76081 -11.28595,11.59097 -20.13168,-18.91158 -20.13168,-44.53372 0,-24.40203 17.08143,-41.48347 L 958.94593,404.4095 q 16.47137,-16.47138 41.48357,-16.47138 24.4019,0 41.4835,15.86133 l 89.6774,89.06745 q 17.0816,17.08143 17.0816,40.87343 z M 719.80594,963.82642 q 0,24.40202 -17.08144,41.48348 l -125.67052,126.2804 q -17.08141,17.0816 -41.48346,17.0816 -23.79201,0 -41.48349,-16.4714 l -89.67749,-89.0675 q -17.08143,-17.0814 -17.08143,-40.8733 0,-24.40209 17.08143,-41.48359 L 531.30016,833.88547 q 16.47138,-16.47138 41.48346,-16.47138 25.62216,0 43.92368,18.91157 -1.83014,1.83017 -11.59096,11.28595 -9.76082,9.45579 -13.1161,13.1161 -3.35528,3.66031 -9.15076,11.59097 -5.7955,7.93066 -7.93067,15.55628 -2.13519,7.62564 -2.13519,16.77644 0,24.40204 17.08144,41.48347 17.08142,17.08147 41.48347,17.08147 9.15076,0 16.7764,-2.1352 7.62565,-2.1352 15.55631,-7.93064 7.93067,-5.79551 11.59097,-9.1508 3.66031,-3.35529 13.11609,-13.11606 9.4558,-9.76082 11.28594,-11.59102 20.1317,18.91162 20.1317,44.5338 z M 1265.8017,533.74033 q 0,-73.20614 -51.8543,-123.84036 l -89.6776,-89.06743 q -50.6341,-50.63424 -123.8402,-50.63424 -73.81633,0 -124.45061,51.85434 L 750.30847,448.33317 q -50.63423,50.63424 -50.63423,123.84036 0,75.03628 53.6845,127.50067 l -53.6845,53.6845 q -52.46438,-53.68449 -126.89062,-53.68449 -73.20611,0 -124.4504,51.24429 L 321.4426,877.80914 q -51.24429,51.2443 -51.24429,124.45056 0,73.2061 51.85434,123.8402 l 89.6775,89.0675 q 50.63423,50.6343 123.84037,50.6343 73.81616,0 124.45041,-51.8543 l 125.6705,-126.2806 q 50.63424,-50.6344 50.63424,-123.84039 0,-75.03633 -53.68449,-127.50076 l 53.68449,-53.68451 q 52.4644,53.68451 126.89058,53.68451 73.20625,0 124.45055,-51.24429 l 126.8906,-126.89062 q 51.2443,-51.24429 51.2443,-124.45043 z"
     id="path4-4"
     style="fill:#505050;fill-opacity:1" />
</svg>
