<?xml version="1.0" encoding="UTF-8" standalone="no"?>
<!-- Generator: Adobe Illustrator 16.0.0, SVG Export Plug-In . SVG Version: 6.00 Build 0)  -->

<svg
   xmlns:dc="http://purl.org/dc/elements/1.1/"
   xmlns:cc="http://creativecommons.org/ns#"
   xmlns:rdf="http://www.w3.org/1999/02/22-rdf-syntax-ns#"
   xmlns:svg="http://www.w3.org/2000/svg"
   xmlns="http://www.w3.org/2000/svg"
   xmlns:sodipodi="http://sodipodi.sourceforge.net/DTD/sodipodi-0.dtd"
   xmlns:inkscape="http://www.inkscape.org/namespaces/inkscape"
   version="1.1"
   id="Capa_1"
   x="0px"
   y="0px"
   width="438.533px"
   height="438.533px"
   viewBox="0 0 438.533 438.533"
   style="enable-background:new 0 0 438.533 438.533;"
   xml:space="preserve"
   inkscape:version="0.91 r13725"
   sodipodi:docname="navUp.svg"><metadata
     id="metadata45"><rdf:RDF><cc:Work
         rdf:about=""><dc:format>image/svg+xml</dc:format><dc:type
           rdf:resource="http://purl.org/dc/dcmitype/StillImage" /><dc:title /></cc:Work></rdf:RDF></metadata><defs
     id="defs43" /><sodipodi:namedview
     pagecolor="#ffffff"
     bordercolor="#666666"
     borderopacity="1"
     objecttolerance="10"
     gridtolerance="10"
     guidetolerance="10"
     inkscape:pageopacity="0"
     inkscape:pageshadow="2"
     inkscape:window-width="1520"
     inkscape:window-height="931"
     id="namedview41"
     showgrid="false"
     inkscape:zoom="1.0763158"
     inkscape:cx="42.3815"
     inkscape:cy="219.26648"
     inkscape:window-x="219"
     inkscape:window-y="124"
     inkscape:window-maximized="0"
     inkscape:current-layer="Capa_1" /><rect
     style="opacity:1;fill:none;fill-opacity:1;fill-rule:nonzero;stroke:none;stroke-width:12.86098671;stroke-linecap:round;stroke-linejoin:round;stroke-miterlimit:4;stroke-dasharray:none;stroke-dashoffset:3.27590013;stroke-opacity:1"
     id="rect4165-6"
     width="422.79526"
     height="413.76373"
     x="7.868866"
     y="12.384628"
     ry="28.733664" /><path
     d="m 126.28945,219.26124 55.71476,0 0,105.61434 c 0,2.80155 0.87617,5.09976 2.61533,6.90091 1.73202,1.7959 3.95908,2.69858 6.66486,2.69858 l 55.7249,0 c 2.70783,0 4.93385,-0.90268 6.67504,-2.69858 1.74219,-1.8022 2.61227,-4.09936 2.61227,-6.90091 l 0,-105.61014 55.72084,0 c 4.25487,0 7.15784,-2.00186 8.70692,-5.99928 1.54907,-3.80512 0.86805,-7.30024 -2.03188,-10.50427 l -92.86604,-96.00644 c -2.13046,-1.798 -4.35345,-2.69753 -6.67502,-2.69753 -2.31854,0 -4.54456,0.89953 -6.67706,2.69753 l -92.57534,95.7038 c -1.93329,2.39908 -2.8979,4.80867 -2.8979,7.2004 0,2.79736 0.86907,5.09976 2.61534,6.90407 1.73711,1.79905 3.96313,2.69752 6.67298,2.69752 z"
     id="path9"
     inkscape:connector-curvature="0"
     style="fill:#505050;fill-opacity:1" /><g
     id="g11" /><g
     id="g13" /><g
     id="g15" /><g
     id="g17" /><g
     id="g19" /><g
     id="g21" /><g
     id="g23" /><g
     id="g25" /><g
     id="g27" /><g
     id="g29" /><g
     id="g31" /><g
     id="g33" /><g
     id="g35" /><g
     id="g37" /><g
     id="g39" /></svg>